<?xml version="1.0" encoding="UTF-8"?><svg id="_圖層_2" xmlns="http://www.w3.org/2000/svg" xmlns:xlink="http://www.w3.org/1999/xlink" viewBox="0 0 291.58 112.11"><defs><style>.cls-1{fill:url(#_未命名漸層_146);}.cls-2{fill:url(#_未命名漸層_146-4);}.cls-3{fill:url(#_未命名漸層_146-3);}.cls-4{fill:url(#_未命名漸層_146-2);}</style><linearGradient id="_未命名漸層_146" x1="41.12" y1="127.78" x2="41.12" y2=".23" gradientUnits="userSpaceOnUse"><stop offset="0" stop-color="#82b7ff"/><stop offset=".21" stop-color="#a9cdff"/><stop offset=".44" stop-color="#cee2ff"/><stop offset=".66" stop-color="#e9f2ff"/><stop offset=".85" stop-color="#f9fbff"/><stop offset="1" stop-color="#fff"/><stop offset="1" stop-color="#fbfbfb"/><stop offset="1" stop-color="#f1f1f1"/><stop offset="1" stop-color="#e0e0e0"/><stop offset="1" stop-color="#c7c7c7"/><stop offset="1" stop-color="#a8a8a8"/><stop offset="1" stop-color="#818181"/><stop offset="1" stop-color="#535353"/><stop offset="1" stop-color="#1f1f1f"/><stop offset="1" stop-color="#000"/></linearGradient><linearGradient id="_未命名漸層_146-2" x1="105.91" y1="127.78" x2="105.91" y2=".23" xlink:href="#_未命名漸層_146"/><linearGradient id="_未命名漸層_146-3" x1="170.36" y1="127.78" x2="170.36" y2=".23" xlink:href="#_未命名漸層_146"/><linearGradient id="_未命名漸層_146-4" x1="246.96" y1="127.78" x2="246.96" y2=".23" xlink:href="#_未命名漸層_146"/></defs><g id="_圖稿"><path class="cls-1" d="M82.23,0v21.59c-16.72,23.65-32.52,56.53-36.87,88.4H11.05c4.17-31.36,23.56-67.7,38.55-85.53H0V0h82.23Z"/><path class="cls-4" d="M77.4,109.99L113.82,0h20.6l-36.33,109.99h-20.7Z"/><path class="cls-3" d="M162.08,109.99V32.9c-4.89,1.18-12.32,1.75-16.43,1.74V13.46c11.31-1.54,20.53-7.2,26.42-13.46h22.99v109.99h-32.98Z"/><path class="cls-2" d="M284.25,24.36h-44.77c-.43,3.35-1.92,12.65-2.36,15.35,4.06-2.83,10.24-4.7,19.13-4.7,22.84,0,35.32,15.66,35.32,36.18,0,22.77-14.02,40.93-44.91,40.93-26.93,0-42.11-13.46-44.33-32.78h31.19c1.53,6.36,5.2,10.82,12.7,10.82,8.69,0,12.58-6.96,12.58-16.91s-3.31-16.36-12.92-16.36c-7.75,0-10.94,3.64-12.82,8.77l-28.45-2.66c2.72-13.32,7.73-47.23,9.39-62.99h74.48l-4.25,24.36Z"/></g></svg>