<?xml version="1.0" encoding="UTF-8"?><svg id="_圖層_2" xmlns="http://www.w3.org/2000/svg" xmlns:xlink="http://www.w3.org/1999/xlink" viewBox="0 0 291.88 114.29"><defs><style>.cls-1{fill:url(#_未命名漸層_146);}.cls-2{fill:url(#_未命名漸層_146-4);}.cls-3{fill:url(#_未命名漸層_146-3);}.cls-4{fill:url(#_未命名漸層_146-2);}</style><linearGradient id="_未命名漸層_146" x1="41.12" y1="129.9" x2="41.12" y2="2.35" gradientUnits="userSpaceOnUse"><stop offset="0" stop-color="#82b7ff"/><stop offset=".21" stop-color="#a9cdff"/><stop offset=".44" stop-color="#cee2ff"/><stop offset=".66" stop-color="#e9f2ff"/><stop offset=".85" stop-color="#f9fbff"/><stop offset="1" stop-color="#fff"/><stop offset="1" stop-color="#fbfbfb"/><stop offset="1" stop-color="#f1f1f1"/><stop offset="1" stop-color="#e0e0e0"/><stop offset="1" stop-color="#c7c7c7"/><stop offset="1" stop-color="#a8a8a8"/><stop offset="1" stop-color="#818181"/><stop offset="1" stop-color="#535353"/><stop offset="1" stop-color="#1f1f1f"/><stop offset="1" stop-color="#000"/></linearGradient><linearGradient id="_未命名漸層_146-2" x1="102.82" y1="129.9" x2="102.82" y2="2.35" xlink:href="#_未命名漸層_146"/><linearGradient id="_未命名漸層_146-3" x1="167.46" y1="129.9" x2="167.46" y2="2.35" xlink:href="#_未命名漸層_146"/><linearGradient id="_未命名漸層_146-4" x1="246.71" y1="129.9" x2="246.71" y2="2.35" xlink:href="#_未命名漸層_146"/></defs><g id="_圖稿"><path class="cls-1" d="M82.23,2.12v21.59c-16.72,23.65-32.52,56.53-36.87,88.4H11.05c4.17-31.36,23.56-67.7,38.55-85.53H0V2.12h82.23Z"/><path class="cls-4" d="M74.31,112.11L110.73,2.12h20.6l-36.33,109.99h-20.7Z"/><path class="cls-3" d="M159.19,112.11V35.02c-4.89,1.18-12.32,1.75-16.43,1.74V15.58c11.31-1.54,20.53-7.2,26.42-13.46h22.99v109.99h-32.98Z"/><path class="cls-2" d="M259.22,29.94c-.87-4.37-3.02-9.08-10.84-9.08-10.86,0-14.02,10.08-14.51,23.81,4.79-4.64,12.11-7.95,23.19-7.95,19.85,0,34.82,13.8,34.82,36.31,0,24.79-16.98,41.27-44.2,41.27-33.6,0-46.13-23.58-46.13-55.72,0-29.25,11.17-58.57,47.41-58.57,28.82,0,39.09,17.3,39.91,29.94h-29.65ZM259.4,75.54c0-9.66-2.44-17.17-12.56-17.17-8.25,0-12.23,5.44-12.23,16.23,0,9.25,3,18,12.34,18,8.57,0,12.45-6.84,12.45-17.06Z"/></g></svg>