<?xml version="1.0" encoding="UTF-8"?><svg xmlns="http://www.w3.org/2000/svg" xmlns:xlink="http://www.w3.org/1999/xlink" viewBox="0 0 1440 2176"><defs><style>.cls-1{fill:none;}.cls-2{fill:#fff;opacity:.23;}.cls-3{isolation:isolate;}.cls-4{clip-path:url(#clippath-1);}.cls-5{fill:url(#_未命名漸層_157);}.cls-6{fill:url(#_未命名漸層_125);}.cls-7{mix-blend-mode:soft-light;}.cls-8{clip-path:url(#clippath);}</style><clipPath id="clippath"><rect class="cls-1" x="0" width="1440" height="2176"/></clipPath><linearGradient id="_未命名漸層_157" x1="720" y1="1896.28" x2="720" y2="10.09" gradientUnits="userSpaceOnUse"><stop offset="0" stop-color="#fff" stop-opacity="0"/><stop offset=".06" stop-color="#fdf4ef" stop-opacity=".04"/><stop offset=".71" stop-color="#ee8247" stop-opacity=".51"/><stop offset="1" stop-color="#e95504" stop-opacity=".7"/></linearGradient><clipPath id="clippath-1"><rect class="cls-1" x="0" y="-83" width="1440" height="1238.78"/></clipPath><linearGradient id="_未命名漸層_125" x1="720" y1="587.74" x2="720" y2="-239.51" gradientUnits="userSpaceOnUse"><stop offset="0" stop-color="#5da2ff"/><stop offset=".2" stop-color="#418ef5"/><stop offset=".49" stop-color="#1d74e9"/><stop offset=".74" stop-color="#0764e2"/><stop offset=".89" stop-color="#005fe0"/></linearGradient></defs><g class="cls-3"><g id="_圖層_2"><g id="_底圖"><g class="cls-8"><rect class="cls-5" x="0" y="444.15" width="1440" height="1732.2"/><g class="cls-4"><path class="cls-6" d="M1440,354.47V-236.84H0V354.47c-149.17,72.62-239.68,167.98-239.68,272.42,0,227.56,429.66,412.04,959.68,412.04s959.68-184.48,959.68-412.04c0-104.44-90.51-199.8-239.68-272.42Z"/><g class="cls-7"><circle class="cls-2" cx="1503.92" cy="-2.5" r="138.72"/><circle class="cls-2" cx="1405.85" cy="180.5" r="138.72"/><circle class="cls-2" cx="1289.95" cy="1" r="138.72"/></g><g class="cls-7"><circle class="cls-2" cx="150.05" cy="-2.5" r="138.72"/><circle class="cls-2" cx="51.98" cy="180.5" r="138.72"/><circle class="cls-2" cx="-63.92" cy="1" r="138.72"/></g></g></g></g></g></g></svg>