<?xml version="1.0" encoding="UTF-8"?><svg id="_圖層_2" xmlns="http://www.w3.org/2000/svg" viewBox="0 0 235.49 47.03"><defs><style>.cls-1{fill:#004097;}.cls-2{fill:#e95504;}.cls-3{fill:#333;}</style></defs><g id="_圖稿"><path class="cls-3" d="M145.85,28.82v.68h4.51v2.23h-1.31v-1.15h-7.58v1.15h-1.29v-2.23h4.33v-.68h1.35ZM142.04,39.47h-1.31v-4.32h9.1v4.32h-1.34v-.43h-6.45v.43ZM149.08,34.69h-7.63v-2.31h7.63v2.31ZM141.81,31.92v-.91h6.92v.91h-6.92ZM144.53,36.63v-.52h-2.49v.52h2.49ZM144.53,37.53h-2.49v.55h2.49v-.55ZM147.74,33.3h-4.95v.48h4.95v-.48ZM145.83,36.63h2.66v-.52h-2.66v.52ZM145.83,37.53v.55h2.66v-.55h-2.66Z"/><path class="cls-3" d="M159.8,28.88v.42h2.82v1.02h-2.82v.39h-1.28v-.39h-2.5v.39h-1.26v-.39h-2.65v-1.02h2.65v-.42h1.26v.42h2.5v-.42h1.28ZM157.58,33.58v-2.65h4.64v7.18c0,.42-.08.72-.25.9-.16.18-.45.27-.86.27h-.7l-.17-.8-.29.76c-.49-.15-.86-.3-1.13-.44s-.46-.29-.59-.46c-.13-.16-.22-.37-.29-.62h-.11v1.68h-1.05v-1.68h-.11c-.06.25-.17.46-.31.63s-.38.33-.69.48c-.31.15-.75.32-1.33.5l-.35-.93c1.03-.24,1.74-.54,2.14-.89h-1.68v-2.37h2.34v-.27h-2.65v-.8h2.65v-.37h-2.99v5.69h-1.26v-8.47h4.45v2.65h.59ZM153.79,31.97h2.06v-.31h-2.06v.31ZM153.79,32.99h2.06v-.33h-2.06v.33ZM155.44,35.89v.91h.61c-.1-.16-.28-.38-.54-.67l.46-.24h-.53ZM156.36,36.8h.45v-.91h-.58c.24.27.41.51.51.72l-.38.19ZM157.85,36.58c.21-.22.38-.45.51-.7h-.56v.91h.43l-.39-.22ZM160.96,38.19v-4.48h-3.13v.37h2.79v.8h-2.79v.27h2.47v2.37h-1.82c.35.3.92.56,1.72.78l-.02-.11h.78ZM159.1,36.07c-.1.2-.26.44-.49.73h.68v-.91h-.61l.41.18ZM160.96,31.66h-2.24v.31h2.24v-.31ZM160.96,32.66h-2.24v.33h2.24v-.33Z"/><path class="cls-3" d="M173.29,36.21l1.36.34v1.24c0,.47-.11.82-.34,1.04s-.59.33-1.07.33h-1.75c-.56,0-.95-.11-1.18-.34-.23-.23-.35-.61-.35-1.14v-1.96h-1.3c-.15.91-.53,1.67-1.13,2.27-.6.6-1.5,1.07-2.69,1.42l-.7-1.19c.72-.22,1.3-.45,1.72-.69.43-.24.74-.5.95-.79.21-.28.35-.63.43-1.02h-1.83v-3.64h3.28v-.91h-4.36v-1.26h4.36v-1h1.39v1h4.54v1.26h-4.54v.91h3.46v3.64h-2.18v1.79c0,.15.03.26.09.33s.17.1.33.1h1.52v-1.72ZM172.1,33.26h-5.27v1.27h5.27v-1.27Z"/><path class="cls-3" d="M181.46,34.85l-1.04.82-.79-1.73s-.04-.07-.06-.07c-.02,0-.03.03-.03.09v5.5h-1.31v-5.09h-.11c-.05.6-.16,1.08-.31,1.45s-.43.79-.83,1.29l-.88-1.14c.65-.76,1.13-1.46,1.43-2.08.3-.63.49-1.24.55-1.83h-1.62v-1.28h1.77v-1.93h1.31v1.93h1.34v1.28h-1.34v1.2h.07l.38-.26c.11-.08.21-.11.3-.11.14,0,.27.11.39.33l.79,1.64ZM184.55,32.03c.11.75.35,1.48.72,2.2s.94,1.51,1.71,2.36l-.87,1.22c-.38-.46-.68-.86-.89-1.22-.21-.35-.37-.72-.49-1.1-.11-.38-.2-.84-.26-1.39h-.11v5.35h-1.29v-5.35h-.11c-.09.8-.26,1.46-.49,1.99-.24.53-.62,1.1-1.16,1.72l-.8-1.22c.8-.84,1.38-1.62,1.73-2.33.35-.72.58-1.46.68-2.23h-1.7v-1.27h1.85v-1.91h1.3v1.91h2.4v1.27h-2.22Z"/><path class="cls-3" d="M198.74,33.4v1.1h-1.76v.72h1.38v1.05h-4.32v.59h4.11v1.1h-4.11v1.45h-1.3v-1.45h-3.93v-1.1h3.93v-.59h-4.13v-1.05h1.39v-.72h-1.77v-1.1h1.77v-.7h-1.39v-1.05h9.75v1.05h-1.38v.7h1.76ZM192.19,31.42h-1.3v-.65h-2.59v-1.15h2.59v-.72h1.3v.72h2.41v-.72h1.32v.72h2.76v1.15h-2.76v.65h-1.32v-.65h-2.41v.65ZM192.75,32.7h-1.46v.7h1.46v-.7ZM191.28,34.5v.72h1.46v-.72h-1.46ZM194.05,33.4h1.66v-.7h-1.66v.7ZM194.05,35.21h1.66v-.72h-1.66v.72Z"/><path class="cls-3" d="M206.65,36.66c.33.3.84.58,1.55.82.7.24,1.64.47,2.8.68l-.43,1.24c-1.24-.29-2.18-.54-2.81-.75-.64-.21-1.14-.47-1.5-.77-.37-.3-.6-.7-.7-1.19h-.11c-.1.5-.32.89-.66,1.19-.34.3-.82.56-1.44.77-.62.21-1.53.46-2.73.74l-.43-1.24c1.15-.21,2.06-.44,2.75-.68s1.17-.51,1.47-.82h-3.88v-1.15h4.3v-.7h-4.38v-1.08h4.41v-.79h-3.73v-1h3.73v-.78h-4.16v-1.06h2.23c-.16-.3-.35-.61-.56-.92l1.35-.39c.18.23.4.59.67,1.1l-.77.22h3.11c.28-.5.49-.94.62-1.31l1.36.4c-.15.35-.32.66-.49.91h2.31v1.06h-4.34v.78h3.92v1h-3.92v.79h4.59v1.08h-4.57v.7h4.49v1.15h-4.02Z"/><path class="cls-3" d="M216.27,34.88c-.5.18-.85.3-1.05.35v2.74c0,.49-.1.83-.29,1.02-.19.19-.53.28-1.03.28h-.98l-.39-1.37h1.38v-2.31c-.42.1-.89.19-1.4.28l-.19-1.32c.6-.11,1.13-.21,1.6-.32v-2.24h-1.44v-1.29h1.44v-1.81h1.3v1.81h1.28v1.29h-1.28v1.91c.36-.11.66-.2.9-.29l.15,1.26ZM222.2,34.88c-.34.91-.84,1.69-1.52,2.34.62.38,1.34.7,2.15.97l-.51,1.28c-1.07-.4-1.97-.86-2.73-1.38-.84.56-1.89,1.02-3.13,1.4l-.53-1.26c.98-.26,1.84-.59,2.57-1-.43-.39-.9-.87-1.43-1.46l.86-.69h-1.15v-1.2h5.42v.99ZM221.78,30.65l1.05.4v1.12c0,.44-.07.75-.21.94-.14.18-.42.27-.83.27h-.57c-.32,0-.57-.03-.74-.1-.17-.07-.29-.19-.37-.35-.07-.17-.11-.41-.11-.74v-1.85h-1.38v.34c0,.79-.14,1.43-.43,1.9-.29.48-.68.9-1.17,1.27l-.71-1.16c.3-.22.52-.42.67-.6.15-.18.26-.41.34-.68s.11-.63.11-1.08v-1.18h3.78v2.76c0,.13.02.21.05.25s.1.05.21.05h.31v-1.55ZM218.15,35.09c.51.55.99,1.01,1.45,1.38.47-.4.85-.86,1.13-1.38h-2.58Z"/><path class="cls-3" d="M227.71,29.11c-.21.98-.48,1.86-.81,2.65v7.65h-1.32v-5.23c-.2.28-.42.56-.66.83l-.63-1.37c.53-.62.97-1.33,1.32-2.12.35-.79.64-1.72.87-2.8l1.23.39ZM227.67,31.96v-1.16h7.33v1.16h-7.33ZM229.33,39.45h-1.37v-3.65h6.66v3.65h-1.37v-.43h-3.92v.43ZM228.08,32.53h6.43v1.07h-6.43v-1.07ZM234.51,35.23h-6.43v-1.07h6.43v1.07ZM228.14,29.11h6.44v1.14h-6.44v-1.14ZM233.25,36.92h-3.92v.98h3.92v-.98Z"/><path class="cls-3" d="M149.57,17.05h-6.18v3.28h6.82l-.33,2.29h-9.2v-12.93h9.17v2.29h-6.45v2.77h6.18v2.29Z"/><path class="cls-3" d="M155.67,11.99h-3.93v-2.29h10.64v2.29h-3.91v10.64h-2.8v-10.64Z"/><path class="cls-3" d="M164.49,9.7h9.02v2.29h-6.29v3.17h5.89v2.29h-5.89v5.18h-2.73v-12.93Z"/><path class="cls-3" d="M184.56,16.72h-2.46v4.27c0,.69-.14,1.17-.41,1.45-.27.27-.76.41-1.45.41h-.87l-.5-1.65c-.19.41-.37.74-.54,1.01l-1.35-1.21c.37-.55.66-1.11.87-1.69.21-.58.39-1.22.53-1.92l1.51.36c-.21,1.23-.54,2.34-.98,3.34h1.45v-4.36h-2.69v-4.3h6.88v4.3ZM182.05,10.01h2.98v1.56h-7.78v-1.56h3.02v-1.48h1.78v1.48ZM182.81,13.89h-3.37v1.31h3.37v-1.31ZM183.8,17.3c.18.4.36.88.55,1.43.19.56.34,1.04.46,1.46l-1.5.66c-.33-1.31-.63-2.32-.91-3.02l1.4-.54ZM190.52,17.98l1.35.57v2.41c0,.49-.03.87-.09,1.13s-.2.45-.41.58c-.21.13-.54.19-.98.19h-.61c-.43,0-.76-.06-.99-.19-.23-.13-.39-.32-.48-.59-.09-.27-.13-.64-.13-1.11v-3.57c-.25,1.08-.64,2.1-1.16,3.06-.53.96-1.22,1.87-2.09,2.72l-1.2-1.69c1.05-.97,1.81-2.03,2.29-3.19.48-1.16.77-2.56.87-4.21h-2.02v-1.75h2.08v-3.79h1.73v3.79h3.09v1.75h-3.15c-.01.25-.04.63-.08,1.13h1.31v5.53c0,.13.02.21.06.25.04.04.13.06.25.06h.36v-3.07ZM190.26,12.06c-.16-.37-.36-.78-.62-1.25s-.52-.91-.78-1.31l1.28-.9c.24.3.51.7.79,1.19s.52.92.69,1.28l-1.35.99Z"/><path class="cls-3" d="M207.23,18.11l1.65.71-.27,2.66c-.05.51-.21.9-.46,1.15-.26.25-.58.38-.97.38-.26,0-.53-.06-.8-.17-.27-.12-.53-.28-.77-.5-.62-.56-1.16-1.23-1.62-2.03-1.15,1.03-2.46,1.94-3.92,2.72l-1.02-1.73c1.52-.76,2.89-1.67,4.09-2.74-.53-1.3-.91-2.78-1.17-4.42l-2.06.16-.11-1.45h-1.57v2.63c.7-.2,1.36-.4,1.97-.61l.2,1.73c-.64.24-1.36.48-2.17.72v3.72c0,.69-.13,1.17-.39,1.43-.26.26-.74.39-1.43.39h-1.46l-.54-1.91h2.02v-3.17c-.67.15-1.36.29-2.06.43l-.27-1.84c.7-.12,1.48-.27,2.33-.46v-3.07h-2.11v-1.8h2.11v-2.5h1.81v2.5h1.73v1.43l1.8-.13c-.09-1-.14-2.03-.14-3.09v-.72h1.91v.68c0,1.01.04,2.01.13,2.99l4.85-.36.14,1.79-4.75.35c.18,1.11.42,2.15.74,3.1.79-.87,1.47-1.81,2.06-2.82l1.48,1.02c-.88,1.4-1.8,2.61-2.76,3.64.49.93,1.03,1.66,1.62,2.19l.2-3.01ZM206.84,11.87c-.78-.61-1.68-1.24-2.71-1.9l1.15-1.31c.89.49,1.81,1.1,2.74,1.83l-1.18,1.39Z"/><path class="cls-3" d="M214.04,9.7h9.02v2.29h-6.29v3.17h5.89v2.29h-5.89v5.18h-2.73v-12.93Z"/><path class="cls-3" d="M228.78,11.99h-3.93v-2.29h10.64v2.29h-3.91v10.64h-2.8v-10.64Z"/><polygon class="cls-2" points="111.44 15.62 112.35 9.31 90.33 9.31 89.42 15.62 96.65 15.62 93.37 39.63 100.62 39.63 103.9 15.62 111.44 15.62"/><path class="cls-2" d="M68.44,12.78l-3.78,26.85h18.88l.92-6.34h-11.79l.94-6.66h11.81l.92-6.34h-11.8l.69-4.65h11.78l.92-6.34h-15.37c-2.17,0-3.83,1.4-4.12,3.47Z"/><path class="cls-2" d="M132.96,15.53l.88-6.22h-15.47c-1.86,0-3.3,1.21-3.55,2.98l-3.95,27.34h6.8l1.9-13.11h11.78l.9-6.22h-11.79l.68-4.77h11.82Z"/><path class="cls-1" d="M36.94,6.26l-3.88,3.05-.9,6.22h22.95l-.9,6.19h-7.74l-3.66,25.31h.31l14.04-10.2,4.44-30.57h-24.67ZM14.01,12.3c.25-1.78,1.69-2.98,3.54-2.98h15.5l1.36-9.31h-15.84L5.44,9.56,0,47.03h17.47l11.3-8.23-1.2,8.23h8.07l3.67-25.31h-8.07l-.9,6.22h-11.61l-1.69,11.69h-7.01l2.59-17.91h18.62l.9-6.19H13.56l.45-3.23Z"/></g></svg>