<?xml version="1.0" encoding="UTF-8"?><svg id="_圖層_2" xmlns="http://www.w3.org/2000/svg" xmlns:xlink="http://www.w3.org/1999/xlink" viewBox="0 0 799.88 94.55"><defs><style>.cls-1{fill:#004097;}.cls-2{fill:url(#_未命名漸層_348);}.cls-3{fill:url(#_未命名漸層_223);}.cls-4{fill:url(#_未命名漸層_348-3);}.cls-5{fill:url(#_未命名漸層_348-2);}.cls-6{fill:url(#_未命名漸層_348-4);}.cls-7{fill:url(#_未命名漸層_223-3);}.cls-8{fill:url(#_未命名漸層_223-2);}</style><linearGradient id="_未命名漸層_223" x1="125.62" y1="-7.73" x2="125.62" y2="82.68" gradientUnits="userSpaceOnUse"><stop offset="0" stop-color="#e98046"/><stop offset=".36" stop-color="#e97e43"/><stop offset=".57" stop-color="#e9793b"/><stop offset=".74" stop-color="#e96f2d"/><stop offset=".88" stop-color="#e96219"/><stop offset="1" stop-color="#e95504"/></linearGradient><linearGradient id="_未命名漸層_223-2" x1="213.05" y1="-7.73" x2="213.05" y2="82.68" xlink:href="#_未命名漸層_223"/><linearGradient id="_未命名漸層_223-3" x1="301.62" y1="-7.73" x2="301.62" y2="82.68" xlink:href="#_未命名漸層_223"/><linearGradient id="_未命名漸層_348" x1="396.47" y1="190.79" x2="396.47" y2="13.56" gradientUnits="userSpaceOnUse"><stop offset="0" stop-color="#005fe0"/><stop offset=".27" stop-color="#005ddc"/><stop offset=".49" stop-color="#0059d2"/><stop offset=".69" stop-color="#0051c1"/><stop offset=".89" stop-color="#0047a8"/><stop offset="1" stop-color="#004097"/><stop offset="1" stop-color="#003e93"/><stop offset="1" stop-color="#003a89"/><stop offset="1" stop-color="#003278"/><stop offset="1" stop-color="#00285f"/><stop offset="1" stop-color="#001b40"/><stop offset="1" stop-color="#000b1a"/><stop offset="1" stop-color="#000"/></linearGradient><linearGradient id="_未命名漸層_348-2" x1="486.29" y1="190.79" x2="486.29" y2="13.56" xlink:href="#_未命名漸層_348"/><linearGradient id="_未命名漸層_348-3" x1="582.29" y1="247.01" x2="582.29" y2="1.27" xlink:href="#_未命名漸層_348"/><linearGradient id="_未命名漸層_348-4" x1="670.87" y1="247.01" x2="670.87" y2="1.27" xlink:href="#_未命名漸層_348"/></defs><g id="_圖稿"><path class="cls-3" d="M157.44,59.99h-42.35v16.02h47.27l-3.04,18.55h-70.45V9.13h70.36v18.55h-44.14v13.75h42.35v18.55Z"/><path class="cls-8" d="M199.53,27.68h-26.58V9.13h80.2v18.55h-26.35v66.87h-27.27V27.68Z"/><path class="cls-7" d="M266.86,9.13h69.52v18.55h-42.83v16.6h40.09v18.64h-40.09v31.63h-26.69V9.13Z"/><path class="cls-2" d="M397.13,56.45h-12.94v20.65c0,3.35-.72,5.69-2.16,7.01-1.44,1.32-3.98,1.98-7.63,1.98h-4.56l-2.65-8c-1,1.98-1.94,3.61-2.82,4.88l-7.13-5.87c1.94-2.64,3.47-5.36,4.6-8.15,1.13-2.79,2.06-5.89,2.78-9.3l7.96,1.75c-1.11,5.94-2.82,11.33-5.14,16.16h7.63v-21.11h-14.18v-20.8h36.24v20.8ZM383.94,23.99h15.68v7.54h-40.97v-7.54h15.92v-7.16h9.37v7.16ZM387.92,42.73h-17.75v6.32h17.75v-6.32ZM393.15,59.27c.94,1.93,1.91,4.24,2.9,6.93,1,2.69,1.8,5.06,2.41,7.09l-7.88,3.2c-1.71-6.35-3.32-11.23-4.81-14.63l7.38-2.59ZM428.56,62.55l7.13,2.74v11.66c0,2.39-.17,4.2-.5,5.45-.33,1.24-1.05,2.17-2.16,2.78-1.11.61-2.82.91-5.14.91h-3.23c-2.27,0-4.01-.3-5.23-.91-1.22-.61-2.06-1.56-2.53-2.86-.47-1.3-.71-3.09-.71-5.37v-17.3c-1.33,5.23-3.37,10.17-6.14,14.82-2.77,4.65-6.44,9.03-11.03,13.15l-6.3-8.15c5.53-4.67,9.55-9.82,12.07-15.43,2.52-5.61,4.05-12.41,4.6-20.38h-10.62v-8.46h10.95v-18.36h9.12v18.36h16.26v8.46h-16.59c-.06,1.22-.19,3.05-.41,5.49h6.88v26.75c0,.61.11,1.02.33,1.22.22.2.66.3,1.33.3h1.91v-14.86ZM427.15,33.89c-.83-1.78-1.92-3.8-3.28-6.06-1.36-2.26-2.72-4.38-4.11-6.36l6.72-4.34c1.27,1.47,2.67,3.39,4.19,5.75,1.52,2.36,2.72,4.43,3.61,6.21l-7.13,4.8Z"/><path class="cls-5" d="M516.56,63.16l8.71,3.43-1.41,12.88c-.28,2.49-1.09,4.34-2.45,5.56-1.36,1.22-3.06,1.83-5.1,1.83-1.38,0-2.79-.28-4.23-.84-1.44-.56-2.79-1.37-4.06-2.44-3.26-2.69-6.11-5.97-8.54-9.83-6.08,4.98-12.97,9.37-20.65,13.18l-5.39-8.38c8.02-3.66,15.21-8.08,21.56-13.26-2.77-6.3-4.81-13.44-6.14-21.41l-10.87.76-.58-7.01h-8.29v12.73c3.7-.96,7.16-1.95,10.37-2.97l1.08,8.38c-3.37,1.17-7.19,2.34-11.45,3.51v17.98c0,3.35-.69,5.66-2.07,6.93-1.38,1.27-3.9,1.91-7.55,1.91h-7.71l-2.82-9.22h10.62v-15.32c-3.54.71-7.16,1.4-10.86,2.06l-1.41-8.92c3.7-.56,7.8-1.3,12.27-2.21v-14.86h-11.11v-8.69h11.11v-12.12h9.54v12.12h9.12v6.94l9.46-.61c-.5-4.83-.75-9.8-.75-14.94v-3.51h10.04v3.28c0,4.88.22,9.7.66,14.48l25.54-1.75.75,8.69-25.05,1.68c.94,5.39,2.24,10.39,3.9,15.01,4.15-4.22,7.77-8.76,10.87-13.64l7.8,4.95c-4.64,6.76-9.48,12.62-14.51,17.6,2.6,4.52,5.45,8.05,8.54,10.59l1.08-14.55ZM514.49,32.98c-4.09-2.95-8.85-6.02-14.26-9.22l6.05-6.32c4.7,2.39,9.51,5.33,14.43,8.84l-6.22,6.71Z"/><path class="cls-4" d="M547.53,9.13h69.52v18.55h-42.83v16.6h40.09v18.64h-40.09v31.63h-26.69V9.13Z"/><path class="cls-6" d="M657.35,27.68h-26.58V9.13h80.2v18.55h-26.35v66.87h-27.27V27.68Z"/><path class="cls-1" d="M0,16.08C0,11.28,1.66,7.21,4.9,4.34,7.31,2.03,9.43,1.02,13.87,0l4.07,7.03c-3.61.55-5.46,1.29-7.31,2.87-1.66,1.39-2.31,2.87-2.59,6.19h10.63v18.58H0v-18.58ZM24.78,16.08c0-4.81,1.66-8.87,4.81-11.74,2.5-2.31,4.62-3.33,8.97-4.34l4.07,7.03c-3.61.55-5.46,1.29-7.21,2.87-1.76,1.39-2.31,2.87-2.59,6.19h10.54v18.58h-18.59v-18.58Z"/><path class="cls-1" d="M775.18,18.58c0,4.81-1.66,8.87-4.9,11.74-2.4,2.31-4.53,3.33-8.97,4.34l-4.07-7.03c3.61-.55,5.46-1.29,7.31-2.87,1.66-1.39,2.31-2.87,2.59-6.19h-10.64V0h18.68v18.58ZM799.88,18.58c0,4.81-1.66,8.87-4.81,11.74-2.5,2.31-4.62,3.33-8.97,4.34l-4.07-7.03c3.61-.55,5.46-1.29,7.31-2.87,1.66-1.39,2.22-2.87,2.5-6.19h-10.54V0h18.59v18.58Z"/></g></svg>