<?xml version="1.0" encoding="UTF-8"?><svg id="_圖層_2" xmlns="http://www.w3.org/2000/svg" xmlns:xlink="http://www.w3.org/1999/xlink" viewBox="0 0 597.72 131.87"><defs><style>.cls-1{fill:#005fe0;}.cls-2{fill:#fff;}.cls-3{fill:url(#_未命名漸層_370);}.cls-4{fill:url(#_未命名漸層_370-2);}.cls-5{fill:url(#_未命名漸層_370-3);}.cls-6{fill:url(#_未命名漸層_370-4);}</style><linearGradient id="_未命名漸層_370" x1="506.96" y1="42.57" x2="530.7" y2="16.79" gradientUnits="userSpaceOnUse"><stop offset="0" stop-color="#e98046"/><stop offset="1" stop-color="#e95504"/></linearGradient><linearGradient id="_未命名漸層_370-2" x1="529.23" y1="63.09" x2="552.98" y2="37.31" xlink:href="#_未命名漸層_370"/><linearGradient id="_未命名漸層_370-3" x1="4199.86" y1="42.57" x2="4223.6" y2="16.79" gradientTransform="translate(4290.62) rotate(-180) scale(1 -1)" xlink:href="#_未命名漸層_370"/><linearGradient id="_未命名漸層_370-4" x1="4222.14" y1="63.09" x2="4245.88" y2="37.31" gradientTransform="translate(4290.62) rotate(-180) scale(1 -1)" xlink:href="#_未命名漸層_370"/></defs><g id="_圖稿"><rect class="cls-1" x="0" y="0" width="597.72" height="104.5" rx="52.25" ry="52.25"/><polygon class="cls-1" points="313.86 104.5 298.86 131.87 283.86 104.5 313.86 104.5 313.86 104.5"/><path class="cls-2" d="M141.29,29.18v9.33c-9.11,10.75-16.92,25.27-20.69,41.08h-14.68c3.05-15.59,13.36-32.5,21.57-40.77h-29.43v-9.64h43.23Z"/><path class="cls-2" d="M191.97,29.47h-28.82c-3.9,0-5.62-.06-8.37-.29.26,2.16.38,4.55.38,9.04,0,15.92-.64,22.74-2.56,27.93-1.28,3.62-3,6.18-6.07,9.1,3.39,2.27,5.37,4.08,8.12,7.58,5.3-5.77,8.05-11.08,9.33-18.19h25.69v7.7c0,1.05-.38,1.28-2.17,1.28-2.62,0-6.45-.29-9.97-.76,1.47,3.21,2.05,5.36,2.68,9.1,3.07.12,5.37.18,7.29.18,5.18,0,7.61-.41,9.4-1.52,1.98-1.23,2.81-3.27,2.81-7.06v-37.2c0-3.97.06-5.48.32-7.17-2.05.23-3.96.29-8.05.29ZM189.67,56.65h-24.8c.19-2.22.26-3.27.38-5.66h24.41v5.66ZM189.67,43h-24.35v-5.07h24.35v5.07Z"/><path class="cls-2" d="M226.35,24.03c-3.22,0-5.6-.13-8.34-.38v9.33c2.17-.19,4.97-.26,8.34-.26h1.68v3.13h-1.61c-3.99,0-5.39-.06-7.28-.19.28,2.49.35,4.92.35,8.82v28.57c0,3.58-.14,6.65-.35,9.4h9.39v-2.88h13.59v2.05h9.32c-.14-2.17-.21-3.84-.21-7.67v-30.49c0-2.94.07-5.75.14-7.8-1.82.13-3.01.19-6.93.19h-1.4v-3.13h1.54c2.17,0,5.04.06,7.21.19v-9.27c-2.8.26-5.18.38-8.41.38h-17.02ZM234.61,32.72h1.68v3.13h-1.68v-3.13ZM228.03,43.27h1.96c-.07,5.62-.49,7.93-1.96,10.67v-10.67ZM242.74,71.07h-14.71v-2.81h14.71v2.81ZM242.74,60.85h-14.71v-4.28c1.19,1.34,2.03,2.43,3.01,4.22,2.52-3.64,3.57-8.05,3.57-15.27v-2.24h1.68v11.63c0,2.49.77,2.94,5.04,2.94h1.4v3ZM242.74,50.43c-1.82,0-1.96-.06-1.96-1.28v-5.88h1.96v7.16Z"/><path class="cls-2" d="M273.07,61.61c0,6.14-.28,8.82-.91,9.91-.49.77-1.61,1.09-4.13,1.09-3.71,0-4.06-.19-4.06-2.17v-17.26h9.67c3.43,0,4.83.06,7.22.32-.21-2.3-.28-3.83-.28-6.65v-16.49c0-2.56.07-4.09.35-6.65-2.17.26-4.34.32-7.71.32h-11.63c-3.5,0-5.88-.13-8.34-.38v9.84c2.45-.26,4.69-.38,8.34-.38h8.62l-.07,11.06h-9.53c-3.29,0-4.83-.06-7.21-.26.21,2.17.28,3.07.28,6.39v24.48c0,5.94,1.47,6.71,13.52,6.71,9.32,0,12.61-.96,14.08-4.03,1.05-2.17,1.47-5.37,1.68-12.72-3.36-.51-5.95-1.34-9.88-3.13Z"/><path class="cls-2" d="M291.91,75.55l9.04,6.01c3.57-5.56,5.18-9.27,7.29-16.43l-9.74-3.26c-1.61,6.01-3.08,9.14-6.58,13.68Z"/><path class="cls-2" d="M337.58,66.85c-2.24-2.68-4.06-4.79-5.46-6.2h11.21c3.57,0,5.67.06,7.64.19-.21-2.11-.28-3.58-.28-7.61v-18.66c0-3.71.07-5.69.28-7.67-2.24.19-4.41.26-8.83.26h-13.31q.42-.77,1.12-2.17.98-1.92,1.33-2.62l-12.05-.7c-.63,2.17-1.05,3.32-2.1,5.5h-8.27c-4.41,0-6.58-.06-8.83-.26.21,2.04.28,4.09.28,7.67v18.66c0,3.84-.07,5.43-.28,7.61,1.96-.13,3.92-.19,7.64-.19h20.17l-6.3,2.62c2.73,2.62,5.04,5.3,7.01,8.24l4.62-2.37c-.07,4.15-.28,4.28-7.92,4.28-4.34,0-4.97-.26-4.97-1.85v-4.47c0-2.3.07-3.26.28-4.67h-11.14c.28,1.73.35,2.56.35,4.67v7.73c0,5.94,2.38,7.03,15.06,7.03,9.88,0,14.29-.77,16.39-2.68,1.33-1.28,1.82-3,2.59-8.5-3.64-.45-6.44-1.15-9.39-2.24l3.15-1.6ZM310.82,34.19h29.35v2.24h-29.35v-2.24ZM310.82,42.69h29.35v2.36h-29.35v-2.36ZM310.82,53.69v-2.37h29.35v2.37h-29.35Z"/><path class="cls-2" d="M349.56,61.93l-9.04,3.64c3.92,5.43,6.3,9.52,8.48,14.96l9.88-4.6c-2.8-5.43-4.83-8.5-9.32-14Z"/><path class="cls-2" d="M393.96,36.36c0-3.38,0-4.49.13-5.77-1.6.12-2.81.18-5.3.18h-10.8c-2.62,0-3.64-.06-5.37-.23.19,2.27.26,3.38.26,6.3v34.87c0,3.79-.06,5.71-.38,7.7h9.27v-5.07h3.45v2.92h8.88c-.13-1.75-.13-2.68-.13-6.12v-34.76ZM385.26,66.27h-3.45v-10.21h3.45v10.21ZM385.26,48.43h-3.45v-9.85h3.45v9.85Z"/><path class="cls-2" d="M430.83,52.74v-8.4c-1.47.17-4.28.29-7.41.29h-6.26v-3.5h4.92c3.39,0,5.05.06,6.97.23v-8.51c-1.92.23-4.22.35-7.09.35h-4.79v-1.17c0-1.69.13-2.86.32-4.02h-10.03c.25,1.23.32,2.39.32,4.08v1.11h-3.96c-3,0-5.18-.12-7.16-.35v8.51c1.15-.12,1.79-.12,2.43-.12,1.98-.06,3.71-.06,5.05-.12h3.64v3.5h-4.73c-3.26,0-6.2-.12-7.67-.29v8.4c1.98-.18,4.92-.29,7.54-.29h12.27v3.21h-12.27c-3.77,0-5.88-.06-7.54-.23v8.51c2.3-.18,3.83-.23,6.97-.29l-6.33,3.44c3.26,3.09,5.11,5.42,7.67,9.56l2.56-1.81c.96,2.16,1.41,4.02,1.79,7.41,2.36,0,4.28.06,4.92.06,8.69,0,11.57-1.75,11.57-7.11v-11.55c3.07,0,4.15.06,6.01.29v-8.51c-1.34.18-2.68.23-6.01.23v-3.21c3.07,0,4.47.06,6.33.29ZM415.17,72.86c0,1.11-.51,1.46-2.3,1.46-1.6,0-2.94-.06-5.5-.29l4.09-2.92c-2.11-3.09-4.03-5.19-6.65-7.46h10.35v9.21Z"/><path class="cls-2" d="M464.57,49.07c1.41-.12,3.13-.17,5.3-.17h22.05c2.3,0,3.83.06,5.3.17-.19-1.4-.26-2.33-.26-4.61v-10.67c0-1.75.06-3.09.26-4.61-1.47.17-2.94.23-5.37.23h-21.99c-2.3,0-3.9-.06-5.3-.23.13,1.28.19,2.8.19,4.61v10.73c0,2.45,0,3.09-.19,4.55ZM474.16,37h13.23v4.49h-13.23v-4.49Z"/><path class="cls-2" d="M492.18,72.86h-6.84v-3.15h5.82c2.81,0,4.79.06,6.46.23v-8.16c-1.66.18-3.58.23-6.46.23h-5.82v-2.86h6.01c3.32,0,5.3.06,7.48.23v-8.46c-2.11.23-3.96.29-7.48.29h-20.96c-4.09,0-4.92-.06-7.22-.47v6.59c-2.56-2.1-3.77-3.56-5.56-6.47h1.41c1.66,0,2.75.06,4.03.23v-8.46c-1.15.17-2.04.23-3.77.23h-2.04v-6.24c2.11-.58,3.32-.99,7.54-2.45l-5.82-7.29c-3.32,1.98-10.35,3.67-19.3,4.72,1.47,2.92,2.3,4.84,3.13,7.81,2.49-.35,3.51-.52,5.18-.82v4.26h-3.13c-1.92,0-2.75-.06-4.41-.29v8.57c1.73-.23,2.68-.29,4.09-.29h2.62c-1.28,4.37-4.79,9.97-8.31,13.35,1.66,2.86,2.68,5.25,3.77,8.86,2.68-2.86,3.83-4.61,5.5-8.46-.06,1.81-.13,3.44-.13,4.78v6.24c0,2.8-.13,4.84-.38,7h9.97c-.26-1.87-.32-3.56-.32-7.06v-10.44c0-1.34-.06-2.97-.13-3.97,1.02,1.87,1.98,3.03,3.51,4.61.83-2.22,2.17-4.96,3.13-6.41,1.53-.17,2.88-.23,6.52-.23h5.75v2.86h-5.56c-3.52,0-4.73-.06-6.39-.23v8.16c1.66-.17,3.71-.23,6.39-.23h5.56v3.15h-7.35c-3.77,0-5.62-.06-7.48-.29v8.63c2.3-.23,4.35-.35,7.48-.35h23.52c3.13,0,5.18.12,7.48.35v-8.63c-1.79.23-3.77.29-7.48.29Z"/><polygon class="cls-3" points="535.12 25.41 518.25 41.76 516.96 18.3 535.12 25.41 535.12 25.41"/><polygon class="cls-4" points="559.57 47.34 527.24 48.07 553.27 28.89 559.57 47.34 559.57 47.34"/><polygon class="cls-5" points="62.6 25.41 79.47 41.76 80.76 18.3 62.6 25.41 62.6 25.41"/><polygon class="cls-6" points="38.15 47.34 70.48 48.07 44.44 28.89 38.15 47.34 38.15 47.34"/></g></svg>